<?xml version="1.0" encoding="utf-8"?><svg xmlns="http://www.w3.org/2000/svg" xmlns:xlink="http://www.w3.org/1999/xlink"><symbol id="at" viewBox="0 0 12 12"><style>.st0{fill:#111}</style><path class="ast0" d="M5.7 8.1c-1.2 0-2.1-1-2.1-2.1s.9-2.1 2-2.1c1 0 1.8.7 2.1 1.6v1.1c-.2.9-1 1.5-2 1.5M6 0C2.7 0 0 2.7 0 6s2.7 6 6 6c.6 0 1.2-.1 1.7-.3l-.3-1.1c-.4.2-.9.3-1.4.3-2.7 0-4.9-2.2-4.9-4.9S3.3 1.2 6 1.2s4.9 2.2 4.9 4.9c0 .9-.3 1.8-.8 2.6 0 0-.3.4-.8.4-.2-.1-.3-.2-.3-.2-.1-.2-.1-.5-.1-.7V3H7.7v.7c-.5-.6-1.3-.8-2.1-.9-1.7.1-3.1 1.5-3.1 3.2 0 1.7 1.4 3.1 3.2 3.1.8 0 1.5-.3 2.1-.8 0 .3.1.9.5 1.3.2.2.6.4 1.2.4.9 0 1.5-.5 1.7-.9.5-.8.8-2 .8-3.1 0-3.3-2.7-6-6-6"/></symbol><symbol id="at-bold" viewBox="0 0 12.5 12.5"><style>.st0{fill:#111;stroke:#111;stroke-width:.5;stroke-miterlimit:10}</style><path class="bst0" d="M5.9 8.4c-1.2 0-2.1-1-2.1-2.1s.9-2.1 2-2.1c1 0 1.8.7 2.1 1.6v1.1c-.1.9-1 1.5-2 1.5M6.2.2c-3.3 0-6 2.7-6 6s2.7 6 6 6c.6 0 1.2-.1 1.7-.3l-.3-1.1c-.4.2-.9.3-1.4.3-2.7 0-4.9-2.2-4.9-4.9s2.2-4.8 4.9-4.8 4.9 2.2 4.9 4.9c0 .9-.3 1.8-.8 2.6 0 0-.3.4-.8.4-.1-.1-.3-.2-.3-.2-.1-.2-.1-.5-.1-.7V3.2H7.9V4c-.5-.7-1.2-.8-2.1-1-1.6.2-3 1.6-3 3.2S4.2 9.3 6 9.3c.8 0 1.5-.3 2.1-.8 0 .3.1.9.5 1.3.2.2.6.4 1.2.4.9 0 1.5-.5 1.7-.9.5-.8.8-2 .8-3.1-.1-3.2-2.7-6-6.1-6"/></symbol><symbol id="attach" viewBox="0 0 30 29.1" enable-background="new 0 0 30 29.1"><style>.st0{filter:url(#Adobe_OpacityMaskFilter)}.st1{fill:#fff}.st2{mask:url(#b);fill:#111}</style><defs><filter id="cAdobe_OpacityMaskFilter" filterUnits="userSpaceOnUse" x="0" y="0" width="30" height="29.1"><feColorMatrix values="1 0 0 0 0 0 1 0 0 0 0 0 1 0 0 0 0 0 1 0"/></filter></defs><mask maskUnits="userSpaceOnUse" x="0" y="0" width="30" height="29.1" id="cb"><g class="cst0"><path id="ca" class="cst1" d="M0 0h30v29.1H0V0z"/></g></mask><path class="cst2" d="M0 20.7c.1-.3.1-.6.2-1 .3-1.4 1-2.6 2.1-3.7C7.5 10.9 12.7 5.6 18 .4c.6-.6 1.6-.4 1.8.3.1.4.1.7-.2 1l-.3.3C14.2 7.2 9 12.3 3.8 17.5c-1 1-1.6 2.2-1.7 3.6-.2 2.1 1 4.3 3 5.3 2.1 1 4.5.7 6.2-1l.2-.2C16.6 20.1 21.7 15 26.8 10c.7-.7 1-1.4 1-2.3 0-1.6-1-2.8-2.4-3.1-1.1-.2-2.1 0-2.9.8l-.1.1L8 19.9c-.3.3-.5.6-.4 1.1.1.5.7.8 1.2.7.1 0 .2-.1.3-.2l.3-.3 7.5-7.5c.5-.5.9-.6 1.4-.3.6.3.7 1 .3 1.5-.1.1-.1.2-.2.3l-7.6 7.6c-1.2 1.2-2.9 1.3-4.2.3C5.2 22 5 20 6.2 18.6c.3-.3.5-.6.8-.8L20.8 4c.9-.9 2-1.5 3.4-1.6 2.7-.3 5.1 1.5 5.7 4.1l.1.5v1.3c-.2 1.3-.8 2.4-1.8 3.3L13.5 26.3c-.3.3-.6.6-.9.8-1.9 1.6-4.1 2.3-6.5 1.7C3 28.1 1 26.1.2 23c-.1-.3-.1-.6-.2-.8v-1.5"/></symbol><symbol viewBox="0 0 21 21" id="close"><path fill-rule="evenodd" d="M9.546 10.253L0 .707.707 0l9.546 9.546L19.8 0l.707.707-9.546 9.546 9.546 9.546-.707.707-9.546-9.546-9.546 9.546L0 19.8l9.546-9.546z"/></symbol></svg>